<svg xmlns="http://www.w3.org/2000/svg"><style>:root svg:not(:target){display:none}</style><svg viewBox="0 0 32 12" id="arrow"><path d="M0 5v2h25v4l7-5-7-5v4z"></path></svg><svg viewBox="0 0 24 24" id="burger"><path stroke="#000" stroke-width="1.5" d="M0 4.25h24m-24 8h24m-24 8h24"></path></svg><svg viewBox="0 0 280 280" id="cat-pro"><path d="M250.2 95.6a30.4 30.4 0 0 1 9-9.2c2-1.4 3.2-1.4 4.4 1.2 1.6 3.8 3 7.8 1.8 12a4.58 4.58 0 0 0 .8 4.2c1.2 1.6 2.2 3.2 3.2 4.6a12.54 12.54 0 0 1 1.8 12.4 10.87 10.87 0 0 0-.4 6.2c.4 1.98.4 4.02 0 6a7.5 7.5 0 0 1-5.4 6.4 10.42 10.42 0 0 0-6.4 4 2.1 2.1 0 0 1-1.8 1c-2.4.4-8.4-5-8.4-7.4v-1.2c.2-7.2-.2-7.8-6.8-10.8a8.78 8.78 0 0 1-3.6-2.4c-1.2-1.6-2.8-1.4-4.6-.8-1.8.6-2.8 1.8-2.6 3.8.6 4.84.8 9.73.6 14.6.01.56.15 1.1.4 1.6 6.2 9 8.6 19.6 11.6 29.8 2.4 7.8 6.8 12 14.8 12.6 1.28.1 2.55.3 3.8.6a8.32 8.32 0 0 1 6.8 6.4c1.4 4.2.6 5.2-3.6 5.2h-13a6.48 6.48 0 0 1-4.6-1.6 23.41 23.41 0 0 0-6.8-4 14.53 14.53 0 0 1-6.8-5.2 57.21 57.21 0 0 0-8-9c-5.6-5.8-11.6-11.4-16.8-17.4a22.76 22.76 0 0 1-6.4-15.2c0-1.8-.4-2.6-2.4-1.8a3.87 3.87 0 0 1-2 .6c-5.6 0-8.4 3.4-10.4 8.4-1.8 4.2-4.2 8.2-6.4 12.4a20.79 20.79 0 0 0-2 8.4c0 4.8 1.2 6.4 5.6 8 2.8 1 5.4 2 6.8 4.8 1.6 3.2 1.2 4-2.2 4.2h-13.6a3.76 3.76 0 0 1-3.8-2.2l-3.6-6a12.1 12.1 0 0 1-1.4-10.8c.87-3.47.93-7.1.2-10.6a16.84 16.84 0 0 1 3.4-14c1.2-1.4 1.2-2-.8-2.4a100.1 100.1 0 0 1-23.6-8.2.2.2 0 0 1-.14-.06.2.2 0 0 1-.06-.14c-6.4-2.4-7.6-2-9.4 4.6-1.6 5.6-3.2 11.2-4.4 17-1.4 6.4.2 12.4 2.2 18.4.8 2.4 3.2 2.2 5 2.8 4 1.2 7.4 2.8 9 7 1.4 3.2 1.2 3.6-2.2 3.6-3.4 0-6.8-.2-10.4 0a13.28 13.28 0 0 1-8.4-2.8c-9.6-6.4-12.4-16.2-13.2-26.8-.4-6.6-4-11.8-8.2-16.8-.8-1-1.6-1.4-2.8-.6a88.65 88.65 0 0 1-13.4 6 53.42 53.42 0 0 0-24.4 17.6 21.26 21.26 0 0 0-4.4 10.2c-.6 3.6.4 5.2 4 6.2s5.4 3 5.8 6.8c.2 1.6-.4 2.4-2 2.4H53.4a3.3 3.3 0 0 1-2.6-1.6 17.12 17.12 0 0 1-3.8-11c-.1-6.91.5-13.81 1.8-20.6a12.6 12.6 0 0 1 6.8-9.6c11.8-5.6 18-16.2 23.6-27.2 1.2-2.2.2-2.6-1.8-2.4a32.94 32.94 0 0 0-15.4 6.4 141.26 141.26 0 0 0-16.6 14.2 33.34 33.34 0 0 1-20.6 9.8c-14.6.8-21.4-7.4-20.8-20.6a19.38 19.38 0 0 1 4.8-12.2 8.5 8.5 0 0 1 9-3c3 .8 3.8 2.4 2.6 5.4-.6 1.2-1.4 2.2-2 3.4a15 15 0 0 0-2 4c-2.2 6 .8 10.2 7 10.8 6.6.6 12-2.2 17-6.2a89.9 89.9 0 0 0 16-16.6A41.58 41.58 0 0 1 85.2 97c4.6-.6 8.6-2.6 13-3.8a83.02 83.02 0 0 1 25.4-3.6 26 26 0 0 0 11.6-2.2c9.8-4 20-4 30.2-2 8 1.6 16 3.6 23.8 5.6a33.16 33.16 0 0 0 14-.4 135.58 135.58 0 0 1 26.8-4 36.32 36.32 0 0 1 17.2 3.4c4 1.8 4 1.8 3 5.6z"></path></svg><svg viewBox="0 0 280 280" id="cat-slim"><path d="M179.68 29h-.76a6.96 6.96 0 0 0-2.92 3.15 30.52 30.52 0 0 0-2.58 6.75 3.21 3.21 0 0 1-1.02 1.82c-.54.48-1.22.77-1.94.83a14.76 14.76 0 0 0-6.1 2.54 14.57 14.57 0 0 0-4.36 4.94 53.8 53.8 0 0 0-3.7 7.92c-2.84 7.28-5.02 14.8-7.7 22.15-1.26 3.34-1.32 3.34-5.12 3.34-4.54 0-4.22-.69-4.28 4.26 0 1.56.48 2.35 2.16 2.27.52 0 1.3-.25 1.5.42.2.67-.48.97-.88 1.37a18.05 18.05 0 0 1-8.66 4.83c-3.8 1-7.68 1.8-11.38 3.02-9.5 3.15-18.28 7.55-25.12 14.99a55.3 55.3 0 0 0-9.48 15.52c-7.34 17.1-10.9 35.11-13.66 53.3a368.2 368.2 0 0 0-2.92 25.73C70.4 212.4 70 216.68 70 221h66.66a4.28 4.28 0 0 0-.46-2.53 9.9 9.9 0 0 0-3.02-4.04 10.04 10.04 0 0 0-4.64-2.04c-1.4-.32-1.56-.73-.7-1.82a20.41 20.41 0 0 0 3.18-6.14c3.26-9.52 4.52-19.46 6.1-29.3A58.97 58.97 0 0 1 144 153.7a42.9 42.9 0 0 1 11.18-12.6c1.66-1.26 1.72-1.26 2 .86.2 1.4.24 2.85.34 4.28.6 9.35.48 18.73-.36 28.07a120.8 120.8 0 0 0-.3 21.77A147.41 147.41 0 0 0 161.4 221H188a10.66 10.66 0 0 0-2.86-5.7 10.85 10.85 0 0 0-5.62-3.09 18.17 18.17 0 0 0-7.52.4c-1.2.28-1.7 0-1.8-1.29a110.44 110.44 0 0 1 2-31.31 348.46 348.46 0 0 0 6.12-35.99 34.89 34.89 0 0 1 4.56-13.85c2.38-4.2 4.46-8.55 6.8-12.77a11.5 11.5 0 0 0 .84-10.27c-.54-1.4-1.06-2.83-1.72-4.18-2-3.86-4-7.68-5.84-11.58-.98-1.98-.76-2.22 1.42-2.28 3.26 0 3.26 0 3.32-3.24v-1.31c0-1.36-.52-2.12-2-1.98h-3.04c-1.38 0-1.78-.57-1.44-1.98a12.34 12.34 0 0 1 3.82-5.88 12.54 12.54 0 0 1 6.44-2.89 44.45 44.45 0 0 1 13.24.85 2.02 2.02 0 0 0 1.51-.12c.47-.24.82-.65.99-1.14.8-1.98 1.68-3.96 2.58-5.94a1.96 1.96 0 0 0-.2-2.26c-6.4-8.03-13.34-15.54-22.8-20.34a2.97 2.97 0 0 1-1.17-.9 2.94 2.94 0 0 1-.59-1.32 38.47 38.47 0 0 0-2.54-8.24 6.94 6.94 0 0 0-2.82-3.4z"></path></svg><svg viewBox="0 0 32 32" id="clock"><path fill="#fff" d="M8.54 1c-1.06 0-1.06 1.58 0 1.58h6.64v1.6C8.38 4.63 3 10.42 3 17.49c0 4.02 1.74 7.64 4.5 10.07.47.43.54 1.18.1 1.64l-1.53 1.55c-.74.69.36 1.75 1.03 1l2-2.03c.35-.34.87-.43 1.3-.21a12.7 12.7 0 0 0 11.07.06c.43-.21.96-.13 1.3.21l1.94 1.97c.68.64 1.65-.31 1.04-1l-1.45-1.48c-.44-.45-.38-1.2.1-1.63A13.46 13.46 0 0 0 29 17.47C29 10.4 23.59 4.6 16.78 4.2V2.6h6.64c1.06 0 1.06-1.59 0-1.59H8.54Zm-4.1 16.47A11.7 11.7 0 0 1 16 5.65c6.38 0 11.55 5.3 11.55 11.82 0 6.55-5.17 11.85-11.55 11.85-6.38 0-11.57-5.3-11.57-11.85Zm10.75-8.09c0-1.1 1.66-1.1 1.66 0v8.63a.84.84 0 0 1-.85.85.81.81 0 0 1-.8-.8V9.39ZM10.22 12a1.16 1.16 0 0 0 1.16-1.15 1.15 1.15 0 0 0-1.16-1.15 1.16 1.16 0 0 0-1.05 1.14A1.15 1.15 0 0 0 10.22 12Zm11.55 0a1.16 1.16 0 0 0 1.16-1.15 1.15 1.15 0 0 0-1.16-1.15 1.16 1.16 0 0 0-1.05 1.14A1.15 1.15 0 0 0 21.77 12Zm-10.4 12.59c0 1.53-2.31 1.53-2.31 0s2.32-1.53 2.32 0ZM16 28.03a1.17 1.17 0 0 0 1.17-.68 1.14 1.14 0 0 0-.7-1.56 1.17 1.17 0 0 0-1.22.32 1.15 1.15 0 0 0 .75 1.92ZM7.91 17.64a1.14 1.14 0 0 1-.68 1.17 1.17 1.17 0 0 1-1.57-.7 1.14 1.14 0 0 1 .32-1.2 1.16 1.16 0 0 1 1.93.73Zm17.33 1.15a1.16 1.16 0 0 0 1.17-.68 1.14 1.14 0 0 0-.7-1.55 1.17 1.17 0 0 0-1.22.32 1.15 1.15 0 0 0 .75 1.91Zm-2.31 5.8c0 1.53-2.32 1.53-2.32 0s2.32-1.53 2.32 0Z"></path></svg><svg viewBox="0 0 24 24" id="cross"><path stroke="#000" stroke-width="1.5" d="m3.5 21.5 17-18m-17 0 17 18"></path></svg><svg viewBox="0 0 32 32" id="cutlery"><path fill="#fff" d="M22.62 1.08a1 1 0 0 1 1.09.21c.9.91 2.1 2.88 3.06 5.92A42.6 42.6 0 0 1 28.5 20a1 1 0 0 1-1 1H24v9a1 1 0 1 1-2 0V2a1 1 0 0 1 .62-.92ZM24 19h2.5a39.62 39.62 0 0 0-1.64-11.19 22.4 22.4 0 0 0-.86-2.3V19ZM10 1a1 1 0 0 1 1 1v28a1 1 0 1 1-2 0V2a1 1 0 0 1 1-1ZM5.5 1a1 1 0 0 1 1 1v5.5c0 .56.2 1.32.7 1.92.48.56 1.31 1.08 2.8 1.08a1 1 0 0 1 0 2 5.41 5.41 0 0 1-4.33-1.8A5.07 5.07 0 0 1 4.5 7.5V2a1 1 0 0 1 1-1Zm9 0a1 1 0 0 0-1 1v5.5c0 .56-.2 1.32-.7 1.92-.48.56-1.31 1.08-2.8 1.08a1 1 0 0 0 0 2 5.4 5.4 0 0 0 4.33-1.8 5.07 5.07 0 0 0 1.17-3.2V2a1 1 0 0 0-1-1Z"></path></svg><svg viewBox="0 0 78 80" id="gift"><path fill="#fff" d="m54.23 21.34-1.16-2.13a5.38 5.38 0 0 0-1.03-9.92 5.43 5.43 0 0 0-4.14.43c-4.98 2.68-7.91 10.82-7.94 10.9l-2.3-.8c.13-.37 3.27-9.1 9.08-12.23a7.86 7.86 0 0 1 11.29 9.1c-.6 2-1.95 3.66-3.8 4.65Zm7.72 29.59H16.09c-.67 0-1.22-.54-1.22-1.21 0-.67.55-1.21 1.22-1.21h45.86c.67 0 1.22.54 1.22 1.21 0 .67-.55 1.21-1.22 1.21Zm2.07-16.22H14.03a3.17 3.17 0 0 1-3.18-3.16v-9.47a3.17 3.17 0 0 1 3.18-3.16h49.98a3.17 3.17 0 0 1 3.19 3.16v9.47a3.17 3.17 0 0 1-3.18 3.16ZM14.03 21.35c-.4 0-.74.33-.74.73v9.47c0 .41.33.74.74.74h49.98c.41 0 .75-.33.75-.74v-9.47c0-.4-.34-.73-.75-.73H14.03Zm43.01 45.8H21a6.11 6.11 0 0 1-6.13-6.09V33.5c0-.67.55-1.2 1.22-1.2.68 0 1.22.53 1.22 1.2v27.56A3.68 3.68 0 0 0 21 64.73h36.04a3.68 3.68 0 0 0 3.7-3.67V33.5a1.22 1.22 0 0 1 2.44 0v27.56a6.11 6.11 0 0 1-6.14 6.09Zm-18.02 0c-.67 0-1.22-.54-1.22-1.21V33.5c0-.67.55-1.2 1.22-1.2.68 0 1.22.53 1.22 1.2v32.44c0 .67-.54 1.2-1.22 1.2ZM23.81 21.34a7.8 7.8 0 0 1-3.17-10.6A7.9 7.9 0 0 1 31.3 7.6c5.82 3.13 8.96 11.86 9.09 12.23l-2.3.8c-.03-.08-2.96-8.22-7.95-10.9a5.46 5.46 0 0 0-7.36 2.17 5.39 5.39 0 0 0 2.2 7.32l-1.17 2.13Z"></path></svg><svg viewBox="0 0 27 34" id="htmlacademy-logo"><path d="M13.64.02 13.5 0 0 1.4v24.61L13.5 34 27 26.01V1.41L13.64 0Zm11.6 25L13.5 31.96 1.77 25.02v-10.1l11.68 6.93.02 1.25-8.02-4.75v1.23l8.04 4.8.02 1.3-8.05-4.76v1.22l8.04 4.81 8.12-4.83V16.9l3.62-2.15v10.26Zm0-11.57L22 15.33l-1.48.88-7.06-4.19-.01 1.23 6.04 3.57-.06.03-.13.07-.86.5-4.98-2.95-.01 1.22 3.93 2.33-.93.61-.02.01-2.97-1.74-.01 1.23 1.94 1.13-1.98 1.19L1.8 13.58l11.63-6.96 11.8 6.83Zm0-1.22L13.43 5.3 1.77 12.22V2.99L13.5 1.76 25.23 3v9.24Z"></path></svg><svg fill="none" id="htmlacademy-text" viewBox="0 0 112 16"><path d="M9.752 1.036V12.5H8.2V7.284H2.016V12.5H.464V1.036h1.552v5.112H8.2V1.036h1.552ZM20.435 2.34h-3.712V12.5h-1.544V2.34h-3.72V1.036h8.976V2.34Zm13.629-1.304V12.5h-1.36V4.076c0-.112.002-.232.008-.36l.032-.392-3.936 7.168c-.123.24-.31.36-.56.36h-.224c-.25 0-.438-.12-.56-.36l-4.016-7.2c.032.283.048.544.048.784V12.5h-1.36V1.036h1.144c.139 0 .245.013.32.04.074.027.146.101.216.224l3.96 7.056c.064.128.125.261.184.4.064.139.122.28.176.424.053-.144.11-.285.168-.424.059-.144.123-.28.192-.408L32.384 1.3c.064-.123.133-.197.208-.224.08-.027.19-.04.328-.04h1.144Zm9.435 10.16V12.5h-6.504V1.036h1.544v10.16h4.96ZM54.38 8.244l-1.8-4.664a9.548 9.548 0 0 1-.336-1.072 8.706 8.706 0 0 1-.344 1.08l-1.8 4.656h4.28Zm3.232 4.256h-1.2a.517.517 0 0 1-.336-.104.64.64 0 0 1-.192-.264l-1.072-2.768h-5.144l-1.072 2.768a.562.562 0 0 1-.184.256.51.51 0 0 1-.336.112h-1.2L51.46 1.036h1.568L57.612 12.5Zm6.593-6.664a.636.636 0 0 1-.127.136.287.287 0 0 1-.177.048.487.487 0 0 1-.264-.096 3.655 3.655 0 0 0-.36-.224 2.548 2.548 0 0 0-.52-.216 2.346 2.346 0 0 0-.752-.104c-.4 0-.752.072-1.056.216a2.03 2.03 0 0 0-.767.608c-.203.267-.358.59-.465.968a4.924 4.924 0 0 0-.151 1.272c0 .49.055.928.167 1.312.113.379.27.699.473.96.207.256.455.453.743.592.294.133.622.2.985.2.346 0 .632-.04.855-.12.224-.085.408-.179.553-.28a4.76 4.76 0 0 0 .367-.272.466.466 0 0 1 .296-.128c.118 0 .209.045.273.136l.4.52a2.838 2.838 0 0 1-.6.56 3.812 3.812 0 0 1-.729.392 4.017 4.017 0 0 1-.807.224c-.283.048-.571.072-.864.072-.507 0-.98-.093-1.416-.28a3.253 3.253 0 0 1-1.129-.808 3.846 3.846 0 0 1-.752-1.312c-.18-.517-.272-1.107-.272-1.768 0-.603.083-1.16.248-1.672.171-.512.416-.952.736-1.32a3.369 3.369 0 0 1 1.192-.872c.475-.208 1.02-.312 1.633-.312.57 0 1.072.093 1.504.28.437.181.824.44 1.16.776l-.376.512Zm6.393 3.016c-.656.021-1.216.075-1.68.16-.459.08-.835.187-1.128.32-.288.133-.499.29-.632.472a1.03 1.03 0 0 0-.192.608c0 .213.035.397.104.552.07.155.163.283.28.384.123.096.264.168.424.216.165.043.341.064.528.064.25 0 .48-.024.688-.072.208-.053.403-.128.584-.224.187-.096.363-.21.528-.344.17-.133.336-.285.496-.456v-1.68Zm-4.6-3.312c.448-.432.93-.755 1.448-.968a4.471 4.471 0 0 1 1.72-.32c.454 0 .856.075 1.208.224.352.15.648.357.888.624s.421.59.544.968c.123.379.184.795.184 1.248V12.5h-.632a.653.653 0 0 1-.32-.064c-.075-.048-.133-.139-.176-.272l-.16-.768a8.67 8.67 0 0 1-.624.528c-.203.15-.416.277-.64.384a3.446 3.446 0 0 1-.72.232 3.69 3.69 0 0 1-.84.088c-.314 0-.61-.043-.888-.128a2.147 2.147 0 0 1-.728-.4 1.938 1.938 0 0 1-.488-.664 2.41 2.41 0 0 1-.176-.96c0-.32.088-.627.264-.92.176-.299.462-.563.856-.792.395-.23.91-.416 1.544-.56.635-.15 1.413-.235 2.336-.256v-.632c0-.63-.136-1.104-.408-1.424-.272-.325-.67-.488-1.192-.488-.352 0-.648.045-.888.136-.234.085-.44.184-.616.296-.17.107-.32.205-.448.296a.641.641 0 0 1-.368.128.425.425 0 0 1-.248-.072.756.756 0 0 1-.176-.192l-.256-.456Zm13.441.784c-.266-.357-.554-.605-.864-.744a2.435 2.435 0 0 0-1.04-.216c-.752 0-1.33.27-1.736.808-.405.539-.608 1.307-.608 2.304 0 .528.046.981.136 1.36.09.373.224.683.4.928.176.24.392.416.648.528.256.112.547.168.872.168.47 0 .878-.107 1.224-.32.352-.213.675-.515.968-.904V6.324ZM80.863.716V12.5h-.848c-.202 0-.33-.099-.384-.296l-.128-.984a4.414 4.414 0 0 1-1.184 1.008c-.442.256-.954.384-1.536.384-.464 0-.885-.088-1.264-.264a2.657 2.657 0 0 1-.968-.792c-.266-.347-.472-.779-.616-1.296-.144-.517-.216-1.112-.216-1.784 0-.597.08-1.152.24-1.664.16-.517.39-.965.688-1.344a3.162 3.162 0 0 1 1.096-.888 3.246 3.246 0 0 1 1.472-.328c.496 0 .92.085 1.272.256.358.165.675.397.952.696V.716h1.424Zm7.673 6.848c0-.33-.048-.632-.144-.904a1.917 1.917 0 0 0-.408-.712 1.722 1.722 0 0 0-.648-.464 2.155 2.155 0 0 0-.872-.168c-.682 0-1.224.2-1.624.6-.394.395-.64.944-.736 1.648h4.432Zm1.152 3.8c-.176.213-.386.4-.632.56a4.03 4.03 0 0 1-.792.384 4.676 4.676 0 0 1-.864.224c-.298.053-.594.08-.888.08-.56 0-1.077-.093-1.552-.28a3.513 3.513 0 0 1-1.224-.832 3.89 3.89 0 0 1-.8-1.36c-.192-.539-.288-1.157-.288-1.856 0-.565.086-1.093.256-1.584a3.74 3.74 0 0 1 .752-1.272 3.374 3.374 0 0 1 1.192-.848 3.87 3.87 0 0 1 1.584-.312c.486 0 .934.083 1.344.248.416.16.774.395 1.072.704.304.304.542.683.712 1.136.171.448.256.96.256 1.536 0 .224-.024.373-.072.448-.048.075-.138.112-.272.112h-5.416c.016.512.086.957.208 1.336.128.379.304.696.528.952.224.25.491.44.8.568a2.8 2.8 0 0 0 1.04.184c.358 0 .664-.04.92-.12a4.608 4.608 0 0 0 1.136-.536c.128-.085.238-.128.328-.128.118 0 .208.045.272.136l.4.52Zm1.877 1.136V4.396h.856c.203 0 .328.099.376.296l.105.832c.298-.368.634-.67 1.007-.904a2.383 2.383 0 0 1 1.296-.352c.544 0 .984.152 1.32.456.342.304.587.715.736 1.232.118-.293.267-.547.449-.76a2.65 2.65 0 0 1 1.352-.832c.26-.064.525-.096.791-.096.427 0 .806.07 1.137.208.336.133.618.33.848.592.234.261.413.584.536.968.122.379.184.813.184 1.304v5.16h-1.432V7.34c0-.635-.139-1.115-.416-1.44-.278-.33-.678-.496-1.2-.496-.235 0-.46.043-.672.128-.209.08-.392.2-.552.36-.16.16-.288.363-.385.608-.09.24-.135.52-.135.84v5.16h-1.433V7.34c0-.65-.13-1.136-.391-1.456-.262-.32-.643-.48-1.144-.48a1.77 1.77 0 0 0-.977.288 3.173 3.173 0 0 0-.823.768v6.04h-1.433Zm19.946-8.104-4.52 10.496a.727.727 0 0 1-.184.256c-.07.064-.179.096-.328.096h-1.056l1.48-3.216-3.344-7.632h1.232a.41.41 0 0 1 .288.096.454.454 0 0 1 .152.2l2.168 5.104c.085.224.157.459.216.704.074-.25.154-.488.24-.712l2.104-5.096a.438.438 0 0 1 .16-.208.436.436 0 0 1 .264-.088h1.128Z" fill="#444"></path></svg><svg viewBox="0 0 32 32" id="leaf"><path fill="#fff" d="M28.84 2.77a.95.95 0 0 0-.9-.77h-.01c-4.94.03-16.95.92-21.8 8.38-2.51 3.88-2.73 8.91-.64 14.96l.07.13a25.93 25.93 0 0 0-1.04 3.32 1 1 0 0 0 .72 1.19l.2.02c.43 0 .81-.32.9-.79.03-.1 2.42-10.37 10.86-16.38.43-.3.55-.93.26-1.38a.9.9 0 0 0-1.3-.28c-4.79 3.4-7.74 8-9.47 11.65-1.24-4.57-.92-8.37.99-11.3 3.74-5.76 12.62-7.15 17.98-7.45-1.16 1.8-2.41 5.1-2.41 10.93 0 3.12-.83 5.52-2.47 7.14-2.62 2.6-6.88 2.83-10 2.58-.51-.04-.96.38-1 .93-.04.55.35 1.03.86 1.07.63.05 1.3.08 1.98.08 3.18 0 6.87-.66 9.43-3.2 2.04-2 3.07-4.9 3.07-8.6 0-9.1 3.22-11.1 3.23-11.1.4-.21.6-.68.5-1.13Z"></path></svg><svg viewBox="0 0 40 40" id="left-right"><path d="m16 11-8 9 8 9V11Zm16 9-8-9v18l8-9Z"></path></svg><svg viewBox="0 0 20 20" id="mail"><path fill="none" stroke="#000" stroke-linecap="round" stroke-linejoin="round" d="M1.5 8.5v8h17v-8m-17-5h17v2l-8.5 6-8.5-6v-2Z"></path></svg><svg viewBox="0 0 20 20" id="phone"><path fill="none" stroke="#000" stroke-linecap="round" stroke-linejoin="round" d="M10 10h8.5m0 0L16 7.5m2.5 2.5L16 12.5m-7.5-10v5h-3v5h3v5H6c-1.5 0-2.5-1-2.5-2.5V5c0-1.5 1-2.5 2.5-2.5h2.5Z"></path></svg><svg viewBox="0 0 30 30" id="plus"><path stroke="#D3D3D3" stroke-width="2" d="M15 0v30m15-15H0" vector-effect="non-scaling-stroke"></path></svg><svg viewBox="0 0 40 40" id="slider-thumb"><path d="m16 11-8 9 8 9V11Zm16 9-8-9v18l8-9Z"></path></svg><svg viewBox="0 0 32 32" id="stewpot"><path fill="#fff" d="M13.88 2c-1.64 0-2.9 1.36-2.9 3.08s1.26 3.08 2.9 3.08c1.63 0 2.9-1.36 2.9-3.08S15.5 2 13.87 2Zm0 1.18c1 0 1.72.84 1.72 1.9 0 1-.8 1.9-1.72 1.9-1 0-1.73-.84-1.73-1.9 0-1 .78-1.9 1.72-1.9ZM3 26.74c0 1.18.4 2.18 1.36 3 1 .84 2.17.77 2.17.77h19.04c.77 0 1.8-.38 2.62-1.45.85-1 .8-2.36.8-2.36V9.5c0-.44-.12-.6-.75-.6-.64 0-.69.27-.69.59V26.7c-.02.3-.07 1.08-.74 1.72-.74.62-1.45.54-1.45.54s-18.13 0-19.03-.03a2.14 2.14 0 0 1-1.45-.9c-.51-.73-.41-1.63-.41-1.63V9.18c0-.46-.24-.64-.73-.64S3 8.72 3 9.12v17.62Zm16.31-16.31c-1.08.23-2.17.38-4.26 2.35-2.08 2-3.62 1.9-5.16 1.82-1.54-.1-3.17-1.54-3.45-1.9-.33-.36-.9-.12-1.08.11-.16.24-.16.64.1 1 1.27 1.18 2.45 2.08 4.72 2.26a7.5 7.5 0 0 0 5.89-2.26c1.45-1.45 2.17-1.72 3.26-1.9a6.3 6.3 0 0 1 5.08 1.26c1 1.1 1.26.78 1.54.48.54-.72-.23-1.27-1.1-1.9a7.24 7.24 0 0 0-5.52-1.28l-.02-.04Zm-9.06 7.16c-1.18 0-2.08 1-2.08 2.26 0 1.27.9 2.27 2.08 2.27 1.18 0 2.08-1 2.08-2.27s-.9-2.26-2.08-2.26Zm11.78.78c-1.54 0-2.8 1.36-2.8 2.99 0 1.63 1.26 2.99 2.8 2.99 1.54 0 2.81-1.36 2.81-3 0-1.62-1.27-2.98-2.8-2.98Zm0 1.45c.8 0 1.45.7 1.45 1.54a1.5 1.5 0 0 1-1.45 1.54c-.8 0-1.45-.7-1.45-1.54 0-.86.65-1.54 1.45-1.54Z"></path></svg><svg viewBox="0 0 29 22" id="telegram"><path d="M23.96 3.15c.18.15.27.38.23.61l-2.63 15.76a.66.66 0 0 1-1.01.44l-7.88-5.25a.66.66 0 0 1-.15-.96l2.61-3.26-4.36 2.9a.66.66 0 0 1-.65.05L4.86 10.8a.66.66 0 0 1 .08-1.2l18.38-6.57a.66.66 0 0 1 .64.11ZM6.83 10.32l3.53 1.77 7.56-5.04a.66.66 0 0 1 .88.96L14 14l6.43 4.3 2.28-13.66-15.88 5.67Z"></path></svg><svg viewBox="0 0 30 30" id="tick-checkbox"><path fill="#68B738" d="m13 19.72-5.7-6.45-1.05 1.19L13 22.09 24.25 9.37 23.2 8.09 13 19.72Z"></path></svg><svg viewBox="0 0 30 30" id="tick-radio"><circle cx="15" cy="15" r="6.5" fill="#68B738"></circle></svg><svg viewBox="0 0 29 22" id="vkontakte"><path d="M1.5 5.34c0-.86.52-1.32 1.55-1.38l3.97.02c.26 0 .44.13.53.38.4 1.26.86 2.34 1.37 3.25.5.92 1.17 1.97 1.99 3.16.07.15.18.23.34.23.13 0 .22-.06.3-.18l.07-.28.03-4.35c0-.3-.07-.5-.23-.6-.15-.1-.43-.18-.83-.23-.32-.05-.48-.23-.48-.55 0-.07 0-.12.02-.15.38-1.09 1.44-1.63 3.2-1.63l1.5-.03c.67 0 1.23.16 1.67.48.44.32.67.82.67 1.5v5.72c.12.08.24.12.34.12.27 0 .5-.15.7-.45 1.95-2.58 3-4.31 3.17-5.18a.3.3 0 0 1 .05-.13c.12-.25.33-.47.61-.65.29-.19.53-.31.75-.38a.55.55 0 0 1 .24-.05h4.13l.26.03c.36 0 .63.16.83.47.07.1.12.21.15.33a2.4 2.4 0 0 1 .06.55v.18a6.11 6.11 0 0 1-.94 2.2 23.4 23.4 0 0 1-1.93 2.53c-.79.9-1.27 1.5-1.47 1.78a.93.93 0 0 0-.24.56c0 .13.07.28.21.45l3.9 4.63c.2.26.31.56.31.88 0 .38-.16.7-.48.95-.32.25-.7.4-1.14.43l-.46.02h-4.04c-.02 0-.06 0-.11.02a.86.86 0 0 1-.1.01c-.4 0-.76-.16-1.1-.48-.12-.13-.96-1.12-2.5-2.97a1.39 1.39 0 0 0-.38-.32 38.47 38.47 0 0 0-.53 2.24l-.08.42a1.4 1.4 0 0 1-1.12 1.06l-.37.02h-2.61c-1.48 0-2.95-.63-4.41-1.9a19.3 19.3 0 0 1-3.96-4.95 47.51 47.51 0 0 1-3.28-7.05 1.92 1.92 0 0 1-.13-.73Zm16.01 6.51c-.37 0-.7-.1-1.01-.29a.9.9 0 0 1-.45-.79V5c0-.34-.1-.58-.27-.72-.18-.14-.49-.21-.93-.21l-1.52.05c-.76 0-1.34.12-1.73.37.78.36 1.17.93 1.17 1.71v4.43a1.5 1.5 0 0 1-.53 1.04 1.6 1.6 0 0 1-1.07.42c-.53 0-.94-.24-1.22-.73a26.16 26.16 0 0 1-3.1-5.63l-.23-.66-3.55-.02c-.23 0-.36.01-.38.03-.03.03-.04.1-.04.22 0 .15.01.3.05.48l.56 1.4c1.49 3.64 3.11 6.51 4.86 8.6 1.75 2.1 3.47 3.15 5.16 3.15h2.66c.1 0 .19-.03.24-.09.05-.06.1-.17.13-.34l.06-.25.5-2.21c.15-.3.27-.5.38-.6.2-.2.42-.28.69-.28.43 0 .86.24 1.3.73l2.27 2.71c.14.22.3.33.45.33h4.4c.53 0 .8-.13.8-.38a.47.47 0 0 0-.08-.25l-3.87-4.55c-.3-.35-.45-.73-.45-1.13 0-.4.14-.8.43-1.16.23-.34.68-.9 1.34-1.67.67-.78 1.25-1.51 1.75-2.19.5-.68.82-1.3.98-1.85l.08-.33a.37.37 0 0 1-.02-.16.54.54 0 0 0-.03-.19h-4.18c-.27.1-.48.25-.64.45L22.3 6c-.45 1.16-1.6 2.94-3.5 5.36-.36.33-.8.5-1.3.5Z"></path></svg><svg viewBox="0 0 29 22" id="youtube"><path d="m18.35 10.8-5.24-3.5a.65.65 0 0 0-1.01.55v6.98a.65.65 0 0 0 1.01.54l5.24-3.49a.65.65 0 0 0 0-1.09Zm-4.94 2.8V9.08l3.4 2.27-3.4 2.27Zm12.48-8.56a2.4 2.4 0 0 0-1.45-1.63C20.72 1.98 14.75 2 14.5 2s-6.22-.02-9.94 1.4a2.4 2.4 0 0 0-1.45 1.64 25.32 25.32 0 0 0-.61 6.3c0 3.26.33 5.22.61 6.3a2.4 2.4 0 0 0 1.45 1.63c3.72 1.43 9.69 1.4 9.94 1.4h.08c.75 0 6.31-.04 9.86-1.4a2.4 2.4 0 0 0 1.45-1.64c.28-1.07.61-3.03.61-6.3 0-3.25-.33-5.22-.61-6.29Zm-1.27 12.27a1.1 1.1 0 0 1-.65.74c-3.5 1.34-9.4 1.32-9.47 1.32-.07 0-5.98.02-9.47-1.32a1.09 1.09 0 0 1-.65-.74c-.27-1-.57-2.85-.57-5.97 0-3.12.3-4.97.57-5.97a1.1 1.1 0 0 1 .65-.74c3.5-1.34 9.4-1.32 9.47-1.32.07 0 5.98-.02 9.47 1.32a1.1 1.1 0 0 1 .65.74c.27 1 .57 2.85.57 5.97 0 3.12-.3 4.96-.57 5.97Z"></path></svg></svg>